# File created by Blade
# Date/Time:  Thu Sep 25 19:04:16 2014
# Frame Rate: 120.000 fps
#------------------------------------------------------
:FULLY-SPECIFIED
:DEGREES
2217
root 0.324752 32.681748 -5.558574 10.119471 0.928624 5.811670
Spine -8.628103 7.274498 -5.689501
Head -12.844351 -9.081566 11.141769
LeftShoulder -15.607256 16.784414 31.496716
LeftArm 15.538689 -22.076707 -26.603676
LeftForeArm 12.160861 -0.000000 11.318929
LeftHand -26.663154 -0.000000 -10.510026
LeftHandThumb1 -26.253704 0.000000 33.147579
RightShoulder -20.960526 14.663177 -40.180598
RightArm -7.684847 7.512596 31.117044
RightForeArm -31.364615 0.000000 16.770197
RightHand -15.803003 -0.000000 -5.300206
RightHandThumb1 -24.326973 -0.000000 -32.862282
LeftUpLeg -6.403270 7.170168 -2.334733
LeftLeg 4.408436 -0.000000 -0.000000
LeftFoot -13.879943 5.347853 -22.286150
LeftToeBase 11.260938 -0.000000 -0.000000
RightUpLeg -10.281212 -18.901776 -17.553269
RightLeg 5.589915 -0.000000 -0.000000
RightFoot 0.181441 -15.200763 2.498386
RightToeBase 1.302110 -0.000000 -0.000000
2218
root 0.414985 32.683561 -5.553132 9.993881 0.994428 5.894256
Spine -8.523845 7.078999 -5.885883
Head -12.731308 -9.174157 11.658334
LeftShoulder -15.395113 16.661546 31.866080
LeftArm 15.410378 -22.372747 -26.111333
LeftForeArm 12.204534 -0.000000 11.321621
LeftHand -26.696211 -0.000000 -10.595791
LeftHandThumb1 -26.253704 0.000000 33.147579
RightShoulder -21.036316 14.849289 -40.552474
RightArm -8.003512 7.770172 30.754256
RightForeArm -31.484609 -0.000000 16.643735
RightHand -16.079750 0.000000 -5.062583
RightHandThumb1 -24.326973 -0.000000 -32.862282
LeftUpLeg -5.869425 7.000068 -2.451388
LeftLeg 3.650658 -0.000000 -0.000000
LeftFoot -13.515914 5.026909 -22.589042
LeftToeBase 11.397691 -0.000000 -0.000000
RightUpLeg -10.093298 -19.211740 -17.743237
RightLeg 5.526357 -0.000000 -0.000000
RightFoot 0.319743 -15.005943 2.062124
RightToeBase 1.076810 -0.000000 -0.000000
2219
root 0.502047 32.683611 -5.549622 9.881096 1.045214 5.918196
Spine -8.417837 6.891771 -5.976897
Head -12.642067 -9.121786 12.106392
LeftShoulder -15.283143 16.454364 32.202829
LeftArm 15.363835 -22.628790 -25.717070
LeftForeArm 12.299620 -0.000000 11.329358
LeftHand -26.811296 -0.000000 -10.749849
LeftHandThumb1 -26.253704 0.000000 33.147579
RightShoulder -21.121586 14.965081 -40.847380
RightArm -8.129481 8.120009 30.323981
RightForeArm -31.567165 -0.000000 16.360363
RightHand -16.294805 -0.000000 -4.658567
RightHandThumb1 -24.326973 -0.000000 -32.862282
LeftUpLeg -5.342862 6.879531 -2.530999
LeftLeg 2.844110 -0.000000 -0.000000
LeftFoot -13.168993 4.841936 -22.744760
LeftToeBase 11.449825 -0.000000 -0.000000
RightUpLeg -9.948187 -19.503858 -17.861043
RightLeg 5.505308 -0.000000 -0.000000
RightFoot 0.396026 -14.799673 1.472521
RightToeBase 0.916409 -0.000000 -0.000000
2220
root 0.586341 32.681774 -5.550327 9.793910 1.062420 5.904955
Spine -8.333658 6.737160 -5.995825
Head -12.543118 -9.105483 12.370871
LeftShoulder -15.186936 16.158201 32.528554
LeftArm 15.312687 -22.660829 -25.375964
LeftForeArm 12.215260 -0.000000 11.374919
LeftHand -27.101068 -0.000000 -10.508183
LeftHandThumb1 -26.253704 0.000000 33.147579
RightShoulder -21.170913 15.185452 -41.144981
RightArm -8.290719 8.421702 29.765128
RightForeArm -31.657005 -0.000000 15.926495
RightHand -15.532227 -0.000000 -3.451885
RightHandThumb1 -24.326973 -0.000000 -32.862282
LeftUpLeg -4.828308 6.686022 -2.592640
LeftLeg 1.987154 -0.000000 -0.000000
LeftFoot -12.889055 4.894368 -22.846328
LeftToeBase 11.419665 -0.000000 -0.000000
RightUpLeg -9.855129 -19.650372 -17.938983
RightLeg 5.524404 -0.000000 -0.000000
RightFoot 0.433384 -14.653521 0.943752
RightToeBase 0.754887 -0.000000 -0.000000
